<svg width="18" height="18" viewBox="0 0 18 18" fill="none" xmlns="http://www.w3.org/2000/svg">
<path d="M10.3919 7.43591L11.8109 6.01791C11.2275 5.4966 10.5041 5.1578 9.73015 5.04345C8.9562 4.9291 8.1657 5.04422 7.45652 5.37457C6.74733 5.70492 6.15058 6.23598 5.74015 6.90203C5.32972 7.56808 5.12361 8.33986 5.14735 9.12186C5.17109 9.90385 5.42362 10.6617 5.8737 11.3016C6.32378 11.9416 6.95164 12.4355 7.67955 12.7222C8.40747 13.0089 9.20349 13.0759 9.96908 12.9148C10.7347 12.7537 11.4362 12.3717 11.9869 11.8159L10.6739 10.5029H10.4639C10.178 10.7539 9.82639 10.9182 9.4504 10.9764C9.07442 11.0346 8.68963 10.9844 8.34119 10.8316C7.99275 10.6788 7.69513 10.4298 7.48324 10.1138C7.27135 9.79778 7.15399 9.4279 7.14494 9.04754C7.13589 8.66718 7.23551 8.29213 7.43213 7.96641C7.62874 7.64068 7.91418 7.37779 8.25496 7.2086C8.59573 7.0394 8.9777 6.97092 9.35603 7.01118C9.73435 7.05144 10.0934 7.19878 10.3909 7.43591H10.3919Z" fill="#FCFCFC"/>
<path fill-rule="evenodd" clip-rule="evenodd" d="M9 0C10.1819 -1.76116e-08 11.3522 0.232792 12.4442 0.685084C13.5361 1.13738 14.5282 1.80031 15.364 2.63604C16.1997 3.47177 16.8626 4.46392 17.3149 5.55585C17.7672 6.64778 18 7.8181 18 9C18 10.1819 17.7672 11.3522 17.3149 12.4442C16.8626 13.5361 16.1997 14.5282 15.364 15.364C14.5282 16.1997 13.5361 16.8626 12.4442 17.3149C11.3522 17.7672 10.1819 18 9 18C6.61305 18 4.32387 17.0518 2.63604 15.364C0.948212 13.6761 0 11.3869 0 9C0 6.61305 0.948212 4.32387 2.63604 2.63604C4.32387 0.948211 6.61305 3.55683e-08 9 0ZM9 2C9.91925 2 10.8295 2.18106 11.6788 2.53284C12.5281 2.88463 13.2997 3.40024 13.9497 4.05025C14.5998 4.70026 15.1154 5.47194 15.4672 6.32122C15.8189 7.17049 16 8.08075 16 9C16 9.91925 15.8189 10.8295 15.4672 11.6788C15.1154 12.5281 14.5998 13.2997 13.9497 13.9497C13.2997 14.5998 12.5281 15.1154 11.6788 15.4672C10.8295 15.8189 9.91925 16 9 16C7.14348 16 5.36301 15.2625 4.05025 13.9497C2.7375 12.637 2 10.8565 2 9C2 7.14348 2.7375 5.36301 4.05025 4.05025C5.36301 2.7375 7.14348 2 9 2Z" fill="#FCFCFC"/>
</svg>
