<svg width="60" height="69" viewBox="0 0 60 69" fill="none" xmlns="http://www.w3.org/2000/svg">
<mask id="mask0_51_120" style="mask-type:alpha" maskUnits="userSpaceOnUse" x="0" y="0" width="60" height="69">
<path d="M27.2865 0.486218C26.3596 0.54335 25.4377 0.683886 24.5366 0.91283C23.7138 1.12176 22.899 1.3653 22.0787 1.5859C14.439 3.56842 8.60468 7.98343 4.46174 14.7129C0.719556 20.7897 -0.551446 27.3758 0.212572 34.4005C0.876193 40.5011 3.61732 45.6759 7.51698 50.2856C10.9851 54.3854 15.0722 57.7791 19.5534 60.7262C24.2016 63.783 29.1515 66.1746 34.4596 67.831C35.7702 68.2397 37.1166 68.4874 38.4614 68.7438C38.7488 68.7985 39.0617 68.851 39.26 68.557C39.4228 68.316 39.3587 68.067 39.2504 67.8377C39.1341 67.592 38.9708 67.3714 38.7971 67.1617C37.9056 66.0862 37.2545 64.873 36.7063 63.5961C36.0606 62.0911 36.2922 60.4314 38.4222 59.8776C43.9774 58.4326 48.5802 55.3658 52.3453 51.0776C57.7634 44.9061 60.2954 37.6457 59.8664 29.4625C59.4114 20.7914 55.8946 13.486 49.3309 7.77408C43.6004 2.78776 36.9408 0.416992 29.5127 0.416992C28.7778 0.416992 28.0363 0.440345 27.2865 0.486218Z" fill="white"/>
</mask>
<g mask="url(#mask0_51_120)">
<path d="M61.9956 -1.66821L61.9943 28.9683L53.413 28.9034L53.3255 28.903C51.2963 28.903 49.3042 29.4527 47.5596 30.4952L45.4654 31.7475L43.2829 29.2863C43.1071 29.089 42.9105 28.9097 42.6968 28.7529C41.889 28.1595 40.8992 27.9172 39.9098 28.0698C38.92 28.2225 38.0485 28.7517 37.4561 29.5603L36.0872 31.4285L34.2401 24.6769C33.916 23.4905 32.9711 22.5814 31.7722 22.3049C30.9049 22.1064 30.0117 22.2557 29.2569 22.729C28.502 23.2019 27.9771 23.9409 27.7776 24.8091L26.1117 32.062L25.086 27.4556C24.7907 26.1323 23.8017 25.0681 22.5057 24.679C21.5455 24.39 20.5319 24.4926 19.6504 24.968C18.7685 25.443 18.124 26.2328 17.8358 27.1932L16.6135 31.2663L15.8024 28.8105C15.2929 27.2704 13.8628 26.2362 12.2427 26.2362H9.99813C8.84794 26.2362 7.9152 27.1695 7.9152 28.3213C7.9152 29.4731 8.84794 30.4064 9.99813 30.4064H11.9415L14.3169 37.5967C14.7501 38.9049 16.1669 39.6188 17.4758 39.1851C18.2486 38.9291 18.8497 38.3094 19.0834 37.5295L21.3667 29.9214L23.6467 40.1593C23.7921 40.8115 24.182 41.3682 24.7461 41.7268C25.1514 41.985 25.6122 42.1176 26.0817 42.1176C26.2641 42.1176 26.4487 42.0976 26.6311 42.0567C27.5635 41.8482 28.3058 41.1113 28.5224 40.1755L31.0961 28.9723L32.5254 34.195C32.7599 35.0545 33.3157 35.771 34.0888 36.2126C34.862 36.6534 35.7606 36.7664 36.6192 36.532C37.3415 36.3344 37.9835 35.8919 38.4268 35.2872L40.5105 32.4427L42.3502 34.5166C43.6778 36.0116 45.8849 36.3527 47.6008 35.3277L49.695 34.0758C50.8089 33.4098 52.0624 33.0645 53.3809 33.0737L61.9943 33.1385L61.9956 70.8714H-2.08276V-1.66821H61.9956Z" fill="#00BF69"/>
</g>
</svg>
