<svg width="23" height="22" viewBox="0 0 23 22" fill="none" xmlns="http://www.w3.org/2000/svg">
<path d="M11.4202 7.65297C9.47343 7.65297 7.88469 9.24171 7.88469 11.1885C7.88469 13.1353 9.47343 14.724 11.4202 14.724C13.367 14.724 14.9558 13.1353 14.9558 11.1885C14.9558 9.24171 13.367 7.65297 11.4202 7.65297ZM22.0242 11.1885C22.0242 9.72443 22.0374 8.27361 21.9552 6.81219C21.873 5.11471 21.4857 3.6082 20.2445 2.36692C19.0005 1.12298 17.4967 0.738396 15.7992 0.656175C14.3351 0.573953 12.8843 0.587215 11.4229 0.587215C9.9588 0.587215 8.50799 0.573953 7.04656 0.656175C5.34908 0.738396 3.84257 1.12563 2.60129 2.36692C1.35736 3.61085 0.972771 5.11471 0.89055 6.81219C0.808328 8.27626 0.82159 9.72708 0.82159 11.1885C0.82159 12.6499 0.808328 14.1034 0.89055 15.5648C0.972771 17.2623 1.36001 18.7688 2.60129 20.0101C3.84522 21.254 5.34908 21.6386 7.04656 21.7208C8.51064 21.803 9.96145 21.7898 11.4229 21.7898C12.887 21.7898 14.3378 21.803 15.7992 21.7208C17.4967 21.6386 19.0032 21.2514 20.2445 20.0101C21.4884 18.7662 21.873 17.2623 21.9552 15.5648C22.0401 14.1034 22.0242 12.6526 22.0242 11.1885ZM11.4202 16.6284C8.40985 16.6284 5.98033 14.1989 5.98033 11.1885C5.98033 8.17813 8.40985 5.74861 11.4202 5.74861C14.4306 5.74861 16.8601 8.17813 16.8601 11.1885C16.8601 14.1989 14.4306 16.6284 11.4202 16.6284ZM17.0829 6.79627C16.38 6.79627 15.8125 6.22868 15.8125 5.52582C15.8125 4.82296 16.38 4.25536 17.0829 4.25536C17.7858 4.25536 18.3534 4.82296 18.3534 5.52582C18.3536 5.69272 18.3209 5.85801 18.2571 6.01225C18.1933 6.16648 18.0997 6.30662 17.9817 6.42463C17.8637 6.54265 17.7236 6.63622 17.5693 6.69999C17.4151 6.76377 17.2498 6.79648 17.0829 6.79627Z" fill="#D5D5D5"/>
</svg>
