<svg width="22" height="23" viewBox="0 0 22 23" fill="none" xmlns="http://www.w3.org/2000/svg">
<path d="M10.9617 0.767578C5.01509 0.767578 0.193359 5.58931 0.193359 11.536C0.193359 17.4826 5.01509 22.3043 10.9617 22.3043C16.9084 22.3043 21.7301 17.4826 21.7301 11.536C21.7301 5.58931 16.9084 0.767578 10.9617 0.767578ZM16.1368 8.88473C16.144 8.9977 16.144 9.11548 16.144 9.23085C16.144 12.7594 13.4567 16.824 8.54607 16.824C7.03176 16.824 5.62803 16.3841 4.44543 15.627C4.66176 15.651 4.86847 15.6606 5.08961 15.6606C6.33951 15.6606 7.48846 15.2376 8.40425 14.5213C7.23127 14.4973 6.24577 13.7281 5.90926 12.6705C6.32028 12.7306 6.69044 12.7306 7.11349 12.6224C6.50951 12.4997 5.96664 12.1717 5.57711 11.6941C5.18758 11.2165 4.9754 10.6187 4.97664 10.0024V9.96878C5.32997 10.1683 5.74581 10.2909 6.18087 10.3077C5.81513 10.0639 5.51519 9.73372 5.30765 9.3463C5.1001 8.95888 4.99135 8.52623 4.99106 8.08671C4.99106 7.58916 5.12086 7.13486 5.35401 6.74066C6.0244 7.56593 6.86094 8.24089 7.80926 8.72168C8.75759 9.20246 9.79647 9.47832 10.8584 9.53131C10.481 7.71655 11.8367 6.24792 13.4664 6.24792C14.2355 6.24792 14.9278 6.57001 15.4157 7.0892C16.019 6.97622 16.5959 6.75028 17.1103 6.44742C16.9108 7.06516 16.4926 7.58675 15.9373 7.91605C16.4757 7.85837 16.9949 7.70934 17.4757 7.50022C17.1127 8.03383 16.6584 8.50735 16.1368 8.88473Z" fill="#D5D5D5"/>
</svg>
